<svg xmlns="http://www.w3.org/2000/svg" viewBox="0 0 800 450">
  <rect width="800" height="450" fill="#0b0f19"/>
  <g stroke="#4c5b8f" stroke-opacity="0.35" stroke-width="1.2">
    <line x1="180" y1="120" x2="400" y2="90"/><line x1="180" y1="120" x2="400" y2="225"/><line x1="180" y1="225" x2="400" y2="90"/>
    <line x1="180" y1="225" x2="400" y2="360"/><line x1="180" y1="330" x2="400" y2="225"/><line x1="180" y1="330" x2="400" y2="360"/>
    <line x1="400" y1="90" x2="620" y2="160"/><line x1="400" y1="225" x2="620" y2="160"/><line x1="400" y1="225" x2="620" y2="290"/>
    <line x1="400" y1="360" x2="620" y2="290"/>
  </g>
  <g stroke="#818cf8" stroke-opacity="0.9" stroke-width="2">
    <line x1="180" y1="120" x2="400" y2="90"/><line x1="400" y1="90" x2="620" y2="160"/><line x1="180" y1="330" x2="400" y2="225"/><line x1="400" y1="225" x2="620" y2="160"/>
  </g>
  <g>
    <circle cx="180" cy="120" r="16" fill="#a78bfa"/><circle cx="180" cy="225" r="16" fill="#1e2637" stroke="#2a3550" stroke-width="2"/><circle cx="180" cy="330" r="16" fill="#a78bfa" fill-opacity="0.7"/>
    <circle cx="400" cy="90" r="14" fill="#a78bfa"/><circle cx="400" cy="225" r="14" fill="#a78bfa" fill-opacity="0.5"/><circle cx="400" cy="360" r="14" fill="#1e2637" stroke="#2a3550" stroke-width="2"/>
    <circle cx="620" cy="160" r="18" fill="#34d399"/><circle cx="620" cy="290" r="18" fill="#1e2637" stroke="#2a3550" stroke-width="2"/>
  </g>
  <text x="655" y="167" font-family="monospace" font-size="22" fill="#34d399" font-weight="bold">3 ✓</text>
  <text x="60" y="62" font-family="monospace" font-size="34" fill="#c4b5fd" font-weight="bold" letter-spacing="4">NeuroDraw</text>
  <text x="60" y="90" font-family="monospace" font-size="14" fill="#64748b" letter-spacing="3">NEURAL NETWORK PLAYGROUND · LIVE ACTIVATIONS</text>
  <g transform="translate(60,140)">
    <rect width="70" height="70" rx="6" fill="#0e1424" stroke="#2a3550"/>
    <rect x="10" y="10" width="14" height="14" fill="#a78bfa"/><rect x="26" y="10" width="14" height="14" fill="#a78bfa" fill-opacity="0.7"/><rect x="42" y="10" width="14" height="14" fill="#a78bfa"/>
    <rect x="42" y="26" width="14" height="14" fill="#a78bfa" fill-opacity="0.8"/>
    <rect x="26" y="42" width="14" height="14" fill="#a78bfa"/><rect x="42" y="42" width="14" height="14" fill="#a78bfa" fill-opacity="0.6"/>
  </g>
</svg>
